<?xml version="1.0" encoding="UTF-8" standalone="no"?>
<!-- Created with Inkscape (http://www.inkscape.org/) -->

<svg
   xmlns:dc="http://purl.org/dc/elements/1.1/"
   xmlns:cc="http://creativecommons.org/ns#"
   xmlns:rdf="http://www.w3.org/1999/02/22-rdf-syntax-ns#"
   xmlns:svg="http://www.w3.org/2000/svg"
   xmlns="http://www.w3.org/2000/svg"
   xmlns:sodipodi="http://sodipodi.sourceforge.net/DTD/sodipodi-0.dtd"
   xmlns:inkscape="http://www.inkscape.org/namespaces/inkscape"
   width="200"
   height="128"
   viewBox="0 0 52.916666 33.866668"
   version="1.1"
   id="svg6397"
   inkscape:version="0.92.4 (5da689c313, 2019-01-14)"
   sodipodi:docname="gdq-omgjam.svg">
  <defs
     id="defs6391" />
  <sodipodi:namedview
     id="base"
     pagecolor="#ffffff"
     bordercolor="#666666"
     borderopacity="1.0"
     inkscape:pageopacity="0.0"
     inkscape:pageshadow="2"
     inkscape:zoom="2.8"
     inkscape:cx="89.611379"
     inkscape:cy="19.257589"
     inkscape:document-units="mm"
     inkscape:current-layer="layer2"
     showgrid="false"
     units="px"
     inkscape:pagecheckerboard="true"
     inkscape:window-width="1920"
     inkscape:window-height="1017"
     inkscape:window-x="-8"
     inkscape:window-y="-8"
     inkscape:window-maximized="1" />
  <metadata
     id="metadata6394">
    <rdf:RDF>
      <cc:Work
         rdf:about="">
        <dc:format>image/svg+xml</dc:format>
        <dc:type
           rdf:resource="http://purl.org/dc/dcmitype/StillImage" />
        <dc:title></dc:title>
      </cc:Work>
    </rdf:RDF>
  </metadata>
  <g
     inkscape:label="Layer 1"
     inkscape:groupmode="layer"
     id="layer1"
     transform="translate(0,-263.13332)" />
  <g
     inkscape:groupmode="layer"
     id="layer2"
     inkscape:label="Layer 2"
     transform="translate(0,-263.13332)">
    <g
       id="g6989"
       transform="matrix(0.15100218,0,0,0.15100218,8.5498413,258.15574)"
       style="fill:#ffffff;fill-opacity:0.96132594"
       inkscape:export-xdpi="213.18608"
       inkscape:export-ydpi="213.18608">
      <path
         sodipodi:nodetypes="cscssssssccccsccscsccscsssssssssscssssc"
         inkscape:connector-curvature="0"
         id="path6954"
         d="m 43.372767,90.152528 c -8.295493,0.39195 -14.05667,2.484381 -19.504859,4.66307 -9.00484,3.600967 -15.8283936,8.487472 -22.0104079,17.367262 -6.1275039,8.90927 -8.7320756,17.82053 -8.1886011,25.97264 0.7559531,11.33929 2.9606805,24.5493 11.3392853,33.63988 2.4380989,2.64528 4.8755205,5.11594 7.3437457,7.35286 3.984175,3.6108 8.811687,5.57458 14.136715,7.49307 3.632052,1.30855 7.192358,3.20244 12.064927,3.20244 8.413199,0 15.857025,-0.99173 21.155024,-2.58993 5.055909,-1.52518 8.149178,-3.65331 8.610601,-3.93016 0.944938,-0.56697 -0.566965,2.74033 1.41741,4.53571 1.984375,1.79539 2.905691,1.81901 2.905691,1.81901 l 15.166295,-0.0709 c 0,0 4.819197,-0.25986 4.960937,-3.66164 0.141743,-3.40179 0,-31.36712 0,-31.36712 0,0 -0.12723,-3.50792 -2.799927,-5.87993 -2.672693,-2.37202 -6.11379,-4.47676 -10.323284,-4.44336 -4.209495,0.0334 -27.829439,-0.0334 -27.829439,-0.0334 0,0 -2.104749,0.43431 -3.10701,1.70384 -1.00226,1.26953 -1.670433,2.17156 -1.703842,3.00678 -0.03341,0.83522 0,12.59508 0,12.59508 0,0 1.102487,2.27179 2.973374,2.50565 1.870885,0.23386 4.276312,0.10022 4.276312,0.10022 0,0 -6.548104,2.57247 -10.757598,2.40543 -4.209497,-0.16704 -7.165155,-0.79129 -9.574752,-1.59449 -2.4096,-0.8032 -16.252977,-2.59859 -18.473587,-17.33966 -2.22061,-14.74107 -0.8032,-20.36347 4.252232,-27.26153 5.055431,-6.89807 24.048734,-7.08706 25.182664,-6.99256 0.515586,0.043 4.494501,0.2342 8.901724,2.14755 2.476737,1.07525 5.088739,3.14694 7.297357,4.93668 2.504772,2.02972 4.333509,4.40577 5.723537,7.5151 0.577407,1.29159 0.0929,2.55947 0.07919,3.77749 -0.01196,1.0624 0.447281,2.10948 0.822829,2.80946 2.558591,4.76894 6.013249,4.67309 9.067106,4.4216 2.056504,-0.16935 6.084582,-0.41137 9.128157,-2.01358 2.900003,-1.52663 4.862669,-4.33167 5.093197,-7.76655 C 91.470233,122.13876 85.091888,110.51599 78.524551,104.7991 71.957217,99.082216 66.051339,93.932289 58.255579,92.231397 50.459822,90.530504 43.372767,90.152528 43.372767,90.152528 Z"
         style="fill:#ffffff;fill-opacity:0.96132594;stroke:#000000;stroke-width:0.26458332px;stroke-linecap:butt;stroke-linejoin:miter;stroke-opacity:1" />
      <path
         sodipodi:nodetypes="ccsssssssscsccssssssssccc"
         inkscape:connector-curvature="0"
         id="path6956"
         d="m 97.754092,166.50372 v 23.19829 c 0,0 18.222168,1.51871 31.269178,-4.95641 2.79669,-1.38798 5.41319,-3.09792 7.61512,-4.96547 9.18622,-7.79122 14.37578,-16.12443 17.05526,-24.82672 1.18914,-3.86207 2.26332,-7.72095 2.32494,-11.76703 0.15445,-10.14184 -2.06752,-21.67198 -7.8297,-30.52574 -1.71651,-2.63746 -3.31663,-5.03743 -5.80105,-7.09244 -6.20979,-5.13649 -11.43175,-8.89237 -17.69871,-11.63202 -4.65711,-2.035894 -9.59512,-3.764465 -17.51405,-3.735979 -18.575232,0.06682 -41.694048,0 -41.694048,0 0,0 11.49259,5.34539 16.704347,11.559409 5.211755,6.21402 8.886711,11.62622 8.886711,11.62622 l 18.10751,0.0668 c 0,0 4.72284,0.37293 9.82287,3.09363 4.10038,2.18741 8.37774,6.0929 11.14808,11.01956 1.1,1.9562 2.10471,4.01936 2.65903,6.4052 0.40359,1.73709 0.56843,3.64522 0.35746,5.80766 -0.93551,9.58892 -4.8625,15.43089 -8.67668,19.50619 -2.40892,2.57382 -5.48865,3.99055 -8.02342,5.15493 -1.32063,0.60664 -2.55096,1.04338 -3.72934,1.42394 -0.64406,0.20801 -1.20137,0.32908 -1.85138,0.46063 -0.52444,0.10614 -1.13396,0.24384 -1.70662,0.24808 -9.02034,0.0668 -11.425508,-0.0688 -11.425508,-0.0688 z"
         style="fill:#ffffff;fill-opacity:0.96132594;stroke:#000000;stroke-width:0.26458332px;stroke-linecap:butt;stroke-linejoin:miter;stroke-opacity:1" />
      <path
         sodipodi:nodetypes="cscssssccscccccccsscscccscsscccscsscsssssscc"
         inkscape:connector-curvature="0"
         id="path6958"
         d="m 142.16629,99.790921 c 0,0 5.24442,4.960939 7.65402,8.268229 2.4096,3.30729 6.04762,9.92187 6.04762,9.92187 0,0 7.08705,-4.86644 14.45759,-4.7247 2.07956,0.04 5.09551,0.32534 7.63222,1.05123 2.68507,0.76835 4.90561,2.02224 7.61184,3.70102 3.79869,2.35648 7.68954,5.68179 9.1354,10.17781 3.44903,10.72508 2.69308,8.59896 2.50409,12.37872 -0.18898,3.77976 -0.80319,6.23661 -0.80319,6.23661 0,0 -6.4256,-1.88988 -11.10306,-1.98438 -4.67745,-0.0945 -10.86681,1.55916 -9.96912,2.07887 0.8977,0.51972 6.75633,4.016 8.50447,5.71689 1.74814,1.7009 5.5279,6.18936 4.44122,7.27605 -1.08668,1.08668 -7.70127,6.3311 -13.51265,6.52009 -5.81138,0.18898 -6.89807,0 -6.89807,0 0,0 -5.81138,-0.75596 -7.1343,-1.6064 -1.32291,-0.85045 -4.81919,-2.74033 -4.81919,-2.74033 0,0 -3.59078,6.80357 -4.34673,7.70126 -0.75595,0.89769 -3.82701,5.33892 -4.91369,6.4256 -1.08668,1.08668 -4.53571,4.34672 -4.53571,4.34672 0,0 12.80394,9.96912 27.45052,9.21317 14.64657,-0.75595 19.37128,-1.84263 23.38727,-3.96875 4.016,-2.12611 8.69346,-5.4334 8.69346,-5.4334 l 3.827,3.96875 c 0,0 10.67783,6.56733 13.98512,6.56733 3.3073,0 6.3311,-0.0945 6.3311,-0.0945 0,0 5.24442,-1.37017 6.99256,-3.07106 1.74814,-1.70089 4.96094,-6.18936 5.10268,-9.40216 0.14174,-3.21279 0.0473,-5.24442 0.0473,-5.24442 0,0 -4.48847,4.15774 -7.55952,4.20499 -3.07106,0.0472 -6.00038,-0.8032 -10.3471,-5.6224 -1.50067,-1.66378 -2.95249,-2.91723 -3.77283,-3.93287 -1.55579,-1.92617 -1.70783,-2.82345 -1.70783,-2.82345 0,0 4.06325,-7.84301 5.00819,-12.70945 0.94494,-4.86644 1.27567,-6.47284 1.27567,-9.59114 0,-3.11831 0.0945,-6.04763 0.0945,-6.04763 0,0 -0.44893,-4.66243 -1.77676,-10.04795 -0.79147,-3.21011 -1.80905,-6.93559 -3.46766,-9.37057 -4.44122,-6.52009 -6.89807,-11.1503 -14.07961,-16.72545 -7.18155,-5.575147 -19.0878,-10.347095 -26.41109,-10.205355 -7.32329,0.14174 -15.02455,0.141736 -19.84375,2.362351 -2.18647,1.007493 -5.57008,2.187889 -8.10344,3.614936 -3.05041,1.718299 -5.07848,3.613859 -5.07848,3.613859 z"
         style="fill:#ffffff;fill-opacity:0.96132594;stroke:#000000;stroke-width:0.26458332px;stroke-linecap:butt;stroke-linejoin:miter;stroke-opacity:1" />
    </g>
  </g>
</svg>
