<?xml version="1.0" encoding="UTF-8" standalone="no"?>
<svg
   xmlns:dc="http://purl.org/dc/elements/1.1/"
   xmlns:cc="http://creativecommons.org/ns#"
   xmlns:rdf="http://www.w3.org/1999/02/22-rdf-syntax-ns#"
   xmlns:svg="http://www.w3.org/2000/svg"
   xmlns="http://www.w3.org/2000/svg"
   xmlns:sodipodi="http://sodipodi.sourceforge.net/DTD/sodipodi-0.dtd"
   xmlns:inkscape="http://www.inkscape.org/namespaces/inkscape"
   height="128"
   width="200"
   viewBox="0 0 187.50053 119.99993"
   version="1.1"
   id="svg913"
   sodipodi:docname="itch_logo.svg"
   inkscape:version="0.92.4 (5da689c313, 2019-01-14)">
  <metadata
     id="metadata919">
    <rdf:RDF>
      <cc:Work
         rdf:about="">
        <dc:format>image/svg+xml</dc:format>
        <dc:type
           rdf:resource="http://purl.org/dc/dcmitype/StillImage" />
        <dc:title></dc:title>
      </cc:Work>
    </rdf:RDF>
  </metadata>
  <defs
     id="defs917" />
  <sodipodi:namedview
     pagecolor="#ffffff"
     bordercolor="#666666"
     borderopacity="1"
     objecttolerance="10"
     gridtolerance="10"
     guidetolerance="10"
     inkscape:pageopacity="0"
     inkscape:pageshadow="2"
     inkscape:window-width="1920"
     inkscape:window-height="1017"
     id="namedview915"
     showgrid="false"
     inkscape:pagecheckerboard="true"
     inkscape:zoom="2.5977583"
     inkscape:cx="50.80783"
     inkscape:cy="82.606938"
     inkscape:window-x="-8"
     inkscape:window-y="-8"
     inkscape:window-maximized="1"
     inkscape:current-layer="svg913" />
  <path
     d="m 59.747363,20.662593 c -3.93094,2.33403 -11.675658,11.231255 -11.749112,13.56455 v 3.862259 c 0,4.895769 4.57624,9.198757 8.731217,9.198757 4.989057,0 9.14587,-4.134776 9.146237,-9.042298 0,4.907522 4.014311,9.042298 9.003735,9.042298 4.989792,0 8.875189,-4.134776 8.875189,-9.042298 0,4.907522 4.268464,9.042298 9.257889,9.042298 h 0.09035 c 4.989792,0 9.258252,-4.134776 9.258252,-9.042298 0,4.907522 3.88577,9.042298 8.87483,9.042298 4.98942,0 9.00373,-4.134776 9.00373,-9.042298 0,4.907522 4.15755,9.042298 9.14624,9.042298 4.15498,0 8.73122,-4.302253 8.73122,-9.198757 V 34.227143 C 138.04368,31.893481 130.29896,22.995888 126.36876,20.662593 114.151,20.233617 105.68092,20.159428 93.057325,20.161264 80.4341,20.162366 63.224351,20.359592 59.746628,20.662593 Z M 83.691458,44.98241 a 10.292868,10.292868 0 0 1 -1.755573,2.260575 c -1.883383,1.841514 -4.464956,2.983003 -7.310966,2.983003 A 10.460713,10.460713 0 0 1 67.298527,47.241515 C 66.616131,46.573076 66.097539,45.85836 65.622653,45.026116 l -0.0022,0.0015 c -0.474519,0.833713 -1.135613,1.548062 -1.819478,2.217236 a 10.467324,10.467324 0 0 1 -7.326393,2.982269 c -0.343034,0 -0.700025,-0.09476 -0.988703,-0.193921 -0.401064,4.176646 -0.570377,8.168185 -0.630243,11.078469 l -7.35e-4,0.01653 c -0.0073,1.477913 -0.01469,2.693224 -0.02204,4.381585 0.07713,8.76317 -0.867869,28.402803 3.863728,33.228423 7.332269,1.709653 20.824465,2.488283 34.360368,2.493053 h 0.0022 c 13.535533,-0.005 27.027723,-0.7834 34.359993,-2.493053 4.7316,-4.82599 3.7866,-24.46562 3.86373,-33.22879 -0.008,-1.687994 -0.0147,-2.903305 -0.022,-4.381585 l -10e-4,-0.01653 c -0.0595,-2.911017 -0.22881,-6.90219 -0.62988,-11.078836 -0.28867,0.09916 -0.6453,0.193921 -0.9887,0.193921 a 10.467324,10.467324 0 0 1 -7.32639,-2.982301 c -0.68386,-0.669174 -1.34496,-1.383155 -1.81984,-2.217236 l -0.002,-0.0015 c -0.47526,0.832244 -0.99348,1.547328 -1.67588,2.2154 a 10.459978,10.459978 0 0 1 -7.32602,2.984105 c -2.84564,0 -5.42758,-1.142223 -7.31096,-2.983371 a 10.292868,10.292868 0 0 1 -1.75558,-2.260574 10.280014,10.280014 0 0 1 -1.73941,2.260574 10.463651,10.463651 0 0 1 -7.327124,2.983739 c -0.09916,0 -0.198329,-0.0044 -0.297493,-0.0073 h -0.0026 c -0.09916,0.0029 -0.198328,0.0073 -0.298594,0.0073 a 10.463651,10.463651 0 0 1 -7.327462,-2.983371 10.280748,10.280748 0 0 1 -1.739413,-2.260575 z m -7.523986,9.729102 -7.35e-4,0.0037 h 0.0055 c 2.979699,0.0062 5.626646,0 8.906407,3.579457 2.581206,-0.270681 5.27847,-0.405838 7.977937,-0.401798 h 0.0022 c 2.699468,-0.0037 5.396732,0.131117 7.978299,0.401798 3.27977,-3.579825 5.92672,-3.573581 8.90641,-3.579457 h 0.005 l -7.3e-4,-0.0037 c 1.40776,0 7.03918,0 10.96314,11.020806 l 4.21485,15.118856 c 3.1234,11.247413 -0.99999,11.522503 -6.1433,11.532423 -7.62756,-0.28391 -11.85085,-5.82314 -11.85085,-11.361641 -4.22219,0.691941 -9.14771,1.037921 -14.073228,1.038281 h -0.0022 c -4.925886,0 -9.851404,-0.34634 -14.073225,-1.038281 0,5.538501 -4.223657,11.077731 -11.850847,11.361641 -5.143312,-0.01 -9.266336,-0.28464 -6.143033,-11.532423 L 65.205062,65.732686 C 69.129023,54.711879 74.760443,54.711879 76.168206,54.711879 Z m 16.889118,8.661067 v 0.0022 c -0.0073,0.0073 -8.029722,7.374872 -9.472009,9.995376 l 5.253494,-0.210448 v 4.581382 c 0,0.214488 2.108156,0.127077 4.218515,0.02938 h 0.0022 c 2.109625,0.0977 4.218148,0.185106 4.218148,-0.02938 v -4.581382 l 5.253492,0.210448 c -1.44265,-2.620504 -9.472007,-9.995376 -9.472007,-9.995376 v -0.0022 l -0.0011,7.35e-4 z"
     id="path911"
     inkscape:connector-curvature="0"
     style="color:#000000;fill:#ffffff;stroke-width:0.36727452" />
</svg>
